<?xml version="1.0" encoding="iso-8859-1"?>
<!-- Uploaded to: SVG Repo, www.svgrepo.com, Generator: SVG Repo Mixer Tools -->
<!DOCTYPE svg PUBLIC "-//W3C//DTD SVG 1.1//EN" "http://www.w3.org/Graphics/SVG/1.1/DTD/svg11.dtd">
<svg fill="#000000" version="1.1" id="Capa_1" xmlns="http://www.w3.org/2000/svg" xmlns:xlink="http://www.w3.org/1999/xlink" 
	 width="800px" height="800px" viewBox="0 0 34.583 34.583"
	 xml:space="preserve">
<g>
	<path d="M24.409,10.393v8.521c0,0.828-0.672,1.5-1.5,1.5c-0.324,0-0.625-0.104-0.869-0.281v1.971c0,0.274-0.225,0.5-0.5,0.5H20.6
		v11.479c0,0.274-0.223,0.5-0.5,0.5h-5.621c-0.275,0-0.5-0.226-0.5-0.5V22.6h-0.938c-0.276,0-0.5-0.224-0.5-0.5v-1.968
		c-0.245,0.175-0.543,0.28-0.867,0.28c-0.828,0-1.5-0.672-1.5-1.5v-8.52c0-0.828,0.672-1.5,1.5-1.5h2.881
		c-1.286-0.877-2.131-2.354-2.131-4.025C12.424,2.179,14.603,0,17.292,0c2.688,0,4.868,2.18,4.868,4.867
		c0,1.673-0.847,3.148-2.134,4.025h2.884C23.737,8.893,24.409,9.564,24.409,10.393z"/>
</g>
</svg>